<?xml version="1.0" encoding="UTF-8" standalone="no"?>
<svg
   width="27.79896"
   height="23.952999"
   viewBox="0 0 27.79896 23.952999"
   fill="none"
   version="1.1"
   id="svg21"
   sodipodi:docname="Exercism-logo.svg"
   inkscape:version="1.2.1 (9c6d41e410, 2022-07-14)"
   xmlns:inkscape="http://www.inkscape.org/namespaces/inkscape"
   xmlns:sodipodi="http://sodipodi.sourceforge.net/DTD/sodipodi-0.dtd"
   xmlns="http://www.w3.org/2000/svg"
   xmlns:svg="http://www.w3.org/2000/svg">
  <sodipodi:namedview
     id="namedview23"
     pagecolor="#ffffff"
     bordercolor="#000000"
     borderopacity="0.25"
     inkscape:showpageshadow="2"
     inkscape:pageopacity="0.0"
     inkscape:pagecheckerboard="0"
     inkscape:deskcolor="#d1d1d1"
     showgrid="false"
     inkscape:zoom="9.518797"
     inkscape:cx="65.396919"
     inkscape:cy="11.976303"
     inkscape:window-width="1920"
     inkscape:window-height="1012"
     inkscape:window-x="0"
     inkscape:window-y="44"
     inkscape:window-maximized="1"
     inkscape:current-layer="svg21" />
  <g
     clip-path="url(#clip0)"
     id="g12"
     transform="translate(-1.12504)">
    <path
       d="m 16.7711,15.3596 c 0,1.0164 -0.8799,1.6516 -1.6593,1.6516 -0.7794,0 -1.7145,-0.3158 -1.7145,-1.6516 V 14.71 h -1.0267 v 0.6496 c 0,1.4793 1.2302,2.6825 2.7412,2.6825 1.511,0 2.7411,-1.2032 2.7411,-2.6825 V 14.71 h -1.0818 z"
       fill="#130b43"
       id="path2" />
    <path
       d="m 8.14791,12.2226 c 0,-0.9706 0.84181,-1.7599 1.87609,-1.7599 1.0336,0 1.8754,0.79 1.8754,1.7599 h 1.1817 c 0,-1.5826 -1.3707,-2.86957 -3.0571,-2.86957 -1.68641,0 -3.05781,1.28697 -3.05781,2.86957 z"
       fill="#130b43"
       id="path4" />
    <path
       d="m 17.8859,12.2226 c 0,-0.9706 0.8419,-1.7599 1.8754,-1.7599 1.0343,0 1.8761,0.79 1.8761,1.7599 h 1.1817 c 0,-1.5826 -1.3714,-2.86957 -3.0578,-2.86957 -1.6864,0 -3.0571,1.28697 -3.0571,2.86957 z"
       fill="#130b43"
       id="path6" />
    <path
       fill-rule="evenodd"
       clip-rule="evenodd"
       d="M 24.7258,8.45805 V 4.64371 c 0,-1.28543 -0.1562,-2.1773 -0.4688,-2.67563 C 23.9445,1.46974 23.2938,1.08551 22.3049,0.815389 22.0063,0.731557 21.8571,0.596496 21.8571,0.410202 c 0,-0.251497 0.3358,-0.377243 1.0075,-0.377243 h 1.0216 c 1.1102,0 1.9522,0.344638 2.5259,1.033921 0.5738,0.68929 0.8606,1.69526 0.8606,3.01795 v 4.02392 c 0,0.93147 0.1003,1.64869 0.3009,2.15165 0.2006,0.503 0.5714,0.9734 1.1125,1.4112 0.1586,0.1304 0.2379,0.2375 0.2379,0.3214 0,0.0838 -0.0793,0.1909 -0.2379,0.3213 -0.5504,0.4471 -0.9236,0.9198 -1.1195,1.4182 -0.1959,0.4983 -0.2939,1.2132 -0.2939,2.1447 v 4.0099 c 0,1.332 -0.2892,2.3426 -0.8676,3.0319 -0.5784,0.6893 -1.418,1.034 -2.5189,1.034 h -1.0216 c -0.4385,0 -0.716,-0.021 -0.8326,-0.0629 -0.1166,-0.0419 -0.1749,-0.1467 -0.1749,-0.3144 0,-0.2328 0.1539,-0.3865 0.4618,-0.4611 l 0.5597,-0.1257 c 1.2315,-0.2794 1.8472,-1.495 1.8472,-3.6467 v -3.8143 c 0,-1.4438 0.3499,-2.4638 1.0496,-3.0599 l 0.2659,-0.2235 c 0.1306,-0.1118 0.1959,-0.1957 0.1959,-0.2515 0,-0.0652 -0.0653,-0.1491 -0.1959,-0.2515 L 25.7754,11.5179 C 25.0757,10.9218 24.7258,9.90183 24.7258,8.45805 Z"
       fill="#130b43"
       id="path8" />
    <path
       fill-rule="evenodd"
       clip-rule="evenodd"
       d="M 5.32324,8.42509 V 4.61075 c 0,-1.28543 0.15627,-2.1773 0.4688,-2.67563 C 6.10458,1.43678 6.75529,1.05256 7.74421,0.78243 8.04275,0.698598 8.19202,0.563537 8.19202,0.377243 8.19202,0.125746 7.85616,0 7.18445,0 H 6.16288 C 5.05269,0 4.21072,0.344638 3.63696,1.03393 3.06321,1.72321 2.77633,2.72918 2.77633,4.05187 V 8.0758 c 0,0.93146 -0.10029,1.64868 -0.30087,2.1517 -0.20058,0.503 -0.57142,0.9734 -1.11252,1.4111 -0.1586,0.1305 -0.2379,0.2376 -0.2379,0.3214 0,0.0838 0.0793,0.191 0.2379,0.3214 0.55043,0.4471 0.9236,0.9198 1.11952,1.4181 0.19592,0.4983 0.29387,1.2132 0.29387,2.1447 v 4.01 c 0,1.332 0.28921,2.3426 0.86763,3.0319 0.57842,0.6893 1.41806,1.0339 2.51892,1.0339 h 1.02157 c 0.43848,0 0.71602,-0.021 0.83264,-0.0629 0.11662,-0.0419 0.17493,-0.1467 0.17493,-0.3143 0,-0.2329 -0.15394,-0.3866 -0.46181,-0.4611 L 7.17045,22.9559 C 5.93897,22.6765 5.32324,21.4609 5.32324,19.3093 v -3.8144 c 0,-1.4438 -0.34984,-2.4637 -1.04955,-3.0599 L 4.00781,12.2115 C 3.87719,12.0997 3.81189,12.0159 3.81189,11.96 c 0,-0.0652 0.0653,-0.149 0.19592,-0.2515 L 4.27369,11.485 C 4.9734,10.8888 5.32324,9.86887 5.32324,8.42509 Z"
       fill="#130b43"
       id="path10" />
  </g>
  <defs
     id="defs19">
    <clipPath
       id="clip0">
      <rect
         width="27.813101"
         height="24"
         fill="#ffffff"
         transform="translate(1.125)"
         id="rect16"
         x="0"
         y="0" />
    </clipPath>
  </defs>
</svg>
